# xmcd CD database file
# Generated: Th 3  Thg 4 22 09:22:08 2003 by KSCD
# 
# Track frame offsets:
#       150
#       19333
#       34338
#       51511
#       68945
#       86190
#       104315
#       121701
#       137288
#       159071
#       176392
#       193503
#       211141
#       232996
#       250018
#       267564
#       283800
#       299593
#
# Disc length: 4212 seconds
#
# Revision: 1
# Processed by: cddbd v1.4PL0 Copyright (c) Steve Scherf et al.
# Submitted via: Kscd 1.3.3
#
DISCID=04107212
DTITLE=Atrist - Love Song
DYEAR=1900
DGENRE=
TTITLE0=Miss you
TTITLE1=
TTITLE2=
TTITLE3=
TTITLE4=
TTITLE5=
TTITLE6=
TTITLE7=
TTITLE8=
TTITLE9=
TTITLE10=
TTITLE11=
TTITLE12=
TTITLE13=
TTITLE14=
TTITLE15=
TTITLE16=
TTITLE17=
EXTD=
EXTT0=
EXTT1=
EXTT2=
EXTT3=
EXTT4=
EXTT5=
EXTT6=
EXTT7=
EXTT8=
EXTT9=
EXTT10=
EXTT11=
EXTT12=
EXTT13=
EXTT14=
EXTT15=
EXTT16=
EXTT17=
PLAYORDER=
